<?xml version="1.0" standalone="no"?><!DOCTYPE svg PUBLIC "-//W3C//DTD SVG 1.1//EN" "http://www.w3.org/Graphics/SVG/1.1/DTD/svg11.dtd"><svg t="1585189445471" class="icon" viewBox="0 0 1024 1024" version="1.1" xmlns="http://www.w3.org/2000/svg" p-id="1212" xmlns:xlink="http://www.w3.org/1999/xlink" width="200" height="200"><defs><style type="text/css"></style></defs><path d="M0 0h1023.968001v1023.968001H0z" fill="#FFFFFF" p-id="1213"></path><path d="M741.976813 983.969251H119.99625c-44.110622 0-79.9975-35.886879-79.9975-79.9975V119.99625c0-44.110622 35.886879-79.9975 79.9975-79.9975h621.980563c44.110622 0 79.9975 35.886879 79.9975 79.9975v783.975501c0 44.110622-35.886879 79.9975-79.9975 79.9975z" fill="#D8DDE3" p-id="1214"></path><path d="M119.99625 79.9975c-22.055311 0-39.99875 17.943439-39.99875 39.99875v783.975501c0 22.055311 17.943439 39.99875 39.99875 39.99875h621.980563c22.055311 0 39.99875-17.943439 39.99875-39.99875V119.99625c0-22.055311-17.943439-39.99875-39.99875-39.99875H119.99625m0-79.9975h621.980563c66.271929 0 119.99625 53.724321 119.99625 119.99625v783.975501c0 66.271929-53.724321 119.99625-119.99625 119.99625H119.99625c-66.271929 0-119.99625-53.724321-119.99625-119.99625V119.99625C0 53.724321 53.724321 0 119.99625 0z" fill="#505873" p-id="1215"></path><path d="M941.10459 993.972938H502.846286c-29.149089 0-52.862348-23.719259-52.862348-52.874347 0-29.151089 23.713259-52.864348 52.862348-52.864348h114.744414V735.935002l-10.623668-8.989719c-40.704728-34.434924-64.049998-84.879348-64.049998-138.389675 0-99.566889 80.349489-180.568357 179.110403-180.568358 98.756914 0 179.100403 81.001469 179.100403 180.568358 0 53.552326-23.37327 104.016749-64.127996 138.453673l-10.639668 8.987719V888.232243h114.744414c29.149089 0 52.864348 23.713259 52.864348 52.864348 0 29.157089-23.715259 52.874348-52.864348 52.874347z" fill="#FFFFFF" p-id="1216"></path><path d="M941.10459 963.973876c12.607606 0 22.865285-10.259679 22.865286-22.875285 0-12.607606-10.257679-22.865285-22.865286-22.865286h-84.743351c-33.136964 0-59.998125-26.863161-59.998125-59.998125v-108.312615a60.002125 60.002125 0 0 1 21.275335-45.830568c33.994938-28.723102 53.490328-70.833786 53.490328-115.536389 0-83.025405-66.88591-150.569295-149.10134-150.569295-82.219431 0-149.11134 67.543889-149.111341 150.569295 0 44.666604 19.473391 86.763289 53.428331 115.488391a59.990125 59.990125 0 0 1 21.245336 45.804568v108.386613c0 33.134965-26.861161 59.998125-59.998125 59.998125h-84.745352c-12.607606 0-22.863286 10.257679-22.863285 22.865286 0 12.613606 10.25568 22.875285 22.863285 22.875285h438.258304m0 59.998125H502.846286c-45.75657 0-82.861411-37.10884-82.861411-82.87341 0-45.75457 37.10484-82.863411 82.861411-82.863411h84.745352v-108.386613c-45.662573-38.632793-74.673666-96.540983-74.673667-161.292959C512.917971 472.267242 606.541046 377.988188 722.027437 377.988188c115.478391 0 209.099466 94.277054 209.099465 210.56742 0 64.787975-29.057092 122.746164-74.765663 161.366957v108.312615h84.743351c45.76657 0 82.863411 37.10884 82.863411 82.863411 0 45.76457-37.096841 82.87341-82.863411 82.87341z" fill="#505873" p-id="1217"></path><path d="M179.994375 223.993h171.994625a39.99875 39.99875 0 0 1 0 79.9975H179.994375a39.99875 39.99875 0 0 1 0-79.9975z" fill="#505873" p-id="1218"></path><path d="M179.994375 395.987625h239.9925a39.99875 39.99875 0 0 1 0 79.9975H179.994375a39.99875 39.99875 0 0 1 0-79.9975z" fill="#505873" p-id="1219"></path><path d="M179.994375 567.982251h115.996375a39.99875 39.99875 0 0 1 0 79.9975H179.994375a39.99875 39.99875 0 0 1 0-79.9975z" fill="#FF402A" p-id="1220"></path></svg>